<svg xmlns="http://www.w3.org/2000/svg" width="70" height="63"
                                            viewBox="0 0 50 63" fill="none">
    <path
                                                d="M49.2861 3.81658C48.8193 3.34981 48.2153 3.10269 47.5563 3.10269H41.8451V2.44371C41.8451 1.0983 40.7468 0 39.4014 0H25.9473C24.6019 0 23.5036 1.0983 23.5036 2.44371V3.10269H8.40198C3.76167 3.10269 0 6.86436 0 11.5047V54.2284C0 58.8138 3.73421 62.548 8.3196 62.548H47.5563C48.9017 62.548 50 61.4497 50 60.1043V5.5464C50 4.88742 49.7529 4.28336 49.2861 3.81658ZM8.40198 7.99012H23.5036V20.95C23.5036 21.8012 23.9429 22.57 24.6568 23.0368C25.3707 23.4761 26.2768 23.5036 27.0181 23.1466L32.6744 20.291L38.3031 23.1192C39.0445 23.4761 39.9506 23.4487 40.6645 23.0093C41.3784 22.57 41.8177 21.8012 41.8177 20.9226V7.99012H45.1126V45.9088H8.3196C7.11148 45.9088 5.95826 46.156 4.85997 46.6502V11.5047C4.85997 10.5711 5.21691 9.66502 5.90335 9.00604C6.56233 8.34706 7.46842 7.99012 8.40198 7.99012ZM45.1126 50.7688V57.6606H8.3196C6.42504 57.6606 4.85997 56.123 4.85997 54.201C4.85997 52.3064 6.39758 50.7413 8.3196 50.7413H45.1126V50.7688ZM36.9577 16.9962L33.7727 15.4036C33.4432 15.2389 33.0588 15.1565 32.6744 15.1565C32.2899 15.1565 31.933 15.2389 31.5761 15.4036L28.3635 16.9962V4.85997H36.9577V16.9962Z"
                                                fill="black" />
</svg>