<svg xmlns="http://www.w3.org/2000/svg" width="70" height="60"
                                            viewBox="0 0 60 60" fill="none">
    <path fill-rule="evenodd" clip-rule="evenodd"
                                                d="M26.3479 10.9163L23.8513 11.7663C23.0279 12.0584 22.2045 12.3772 21.4343 12.7756L19.0704 13.9442L13.7317 9.96016L9.90704 13.7583L13.8911 19.0969L12.7224 21.4608C12.324 22.2311 12.0053 23.0544 11.7131 23.8778L10.8898 26.3745L4.30279 27.3307V32.749L10.8898 33.7052L11.7397 36.2019C12.0319 37.0252 12.3506 37.8486 12.749 38.6189L13.9177 40.9827L9.9336 46.3214L13.7583 50.1461L19.0969 46.162L21.4608 47.3307C22.2311 47.7291 23.0544 48.0478 23.8778 48.34L26.3745 49.1899L27.3307 55.7769H32.749L33.7052 49.1899L36.2019 48.34C37.0252 48.0478 37.8486 47.7291 38.6189 47.3307L40.9827 46.162L46.3214 50.1461L50.1461 46.3214L46.162 40.9827L47.3307 38.6189C47.7291 37.8486 48.0478 37.0252 48.34 36.2019L49.1899 33.7052L55.7769 32.749V27.3307L49.1368 26.3745L48.2868 23.8778C47.9947 23.0544 47.676 22.2311 47.2776 21.4608L46.1089 19.0969L50.093 13.7583L46.2683 9.9336L40.9296 13.9177L38.5657 12.749C37.7955 12.3506 36.9721 12.0319 36.1487 11.7397L33.6521 10.8898L32.6959 4.30279H27.2776L26.3479 10.9163ZM37.5299 7.67596L36.9721 3.6919C36.6799 1.56707 34.8738 0 32.7224 0H27.3041C25.1793 0 23.3466 1.56707 23.0544 3.6919L22.4967 7.67596C21.4874 8.02125 20.4781 8.41965 19.5485 8.89774L16.3347 6.48074C14.6082 5.2324 12.2178 5.39177 10.7039 6.90571L6.87915 10.7304C5.36521 12.2444 5.20584 14.6348 6.48074 16.3347L8.89774 19.5485C8.41965 20.5046 8.02125 21.4874 7.67596 22.4967L3.6919 23.0544C1.56706 23.3466 0 25.1527 0 27.3041V32.7224C0 34.8473 1.56706 36.6799 3.6919 36.9721L7.67596 37.5299C8.02125 38.5392 8.41965 39.5485 8.89774 40.4781L6.48074 43.6919C5.20584 45.3918 5.36521 47.7822 6.87915 49.2961L10.7039 53.1208C12.2178 54.6348 14.6082 54.7942 16.3081 53.5193L19.5219 51.1023C20.4781 51.5803 21.4608 51.9787 22.4701 52.324L23.0279 56.3081C23.3201 58.4064 25.1262 60 27.2776 60H32.6959C34.8207 60 36.6534 58.4329 36.9455 56.3081L37.5033 52.324C38.5126 51.9787 39.5219 51.5803 40.4515 51.1023L43.6653 53.5193C45.3652 54.7942 47.7556 54.6348 49.2696 53.1208L53.0943 49.2961C54.6082 47.7822 54.7676 45.3918 53.4927 43.6919L51.0757 40.4781C51.5538 39.5219 51.9522 38.5392 52.2975 37.5299L56.2815 36.9721C58.3798 36.6799 59.9734 34.8738 59.9734 32.7224V27.3041C59.9734 25.1793 58.4064 23.3466 56.2815 23.0544L52.2975 22.4967C51.9522 21.4874 51.5538 20.4781 51.0757 19.5485L53.4927 16.3347C54.7676 14.6348 54.6082 12.2444 53.0943 10.7304L49.2696 6.90571C47.7556 5.39177 45.3652 5.2324 43.6653 6.5073L40.4515 8.9243C39.5485 8.44621 38.5657 8.02125 37.5299 7.67596ZM42.8685 30.0398C42.8685 37.1315 37.1049 42.8951 30.0133 42.8951C22.9216 42.8951 17.158 37.1315 17.158 30.0398C17.158 22.9482 22.8951 17.1846 30.0133 17.1846C37.1315 17.1846 42.8685 22.9216 42.8685 30.0398ZM38.5923 30.0398C38.5923 34.7676 34.741 38.6189 30.0133 38.6189C25.2855 38.6189 21.4343 34.7676 21.4343 30.0398C21.4343 25.3121 25.2855 21.4608 30.0133 21.4608C34.741 21.4608 38.5923 25.3121 38.5923 30.0398Z"
                                                fill="black" />
</svg>