<svg xmlns="http://www.w3.org/2000/svg" width="39" height="36" viewBox="0 0 80 37" fill="none">
                                        <path
                                            d="M79.9633 33.7582C78.5172 30.0316 76.3612 26.5517 73.5216 23.4005V5.20621H77.781C78.1754 5.20621 78.4909 4.8774 78.4909 4.46638V0.73983C78.4909 0.548022 78.4121 0.356214 78.2806 0.219209C78.1491 0.0822033 77.9651 0 77.781 0L2.24147 0C1.84708 0 1.53156 0.328813 1.53156 0.73983V4.46638C1.53156 4.8774 1.84708 5.20621 2.24147 5.20621H6.71127V23.1813C3.76646 26.3873 1.55786 29.9494 0.0591591 33.7582C-0.0197197 33.95 -0.0197197 34.1418 0.0591591 34.3336C0.138038 34.5254 0.269502 34.6624 0.453553 34.7446L3.76646 36.1421C4.13456 36.3065 4.55525 36.1147 4.68671 35.731C9.5772 23.1539 23.7491 14.687 39.9981 14.687C56.2471 14.687 70.419 23.1539 75.3095 35.731C75.4147 36.0324 75.6776 36.1969 75.9668 36.1969C76.0457 36.1969 76.1509 36.1695 76.2297 36.1421L79.5427 34.7446C79.7267 34.6624 79.8582 34.5254 79.937 34.3336C80.0159 34.1418 80.0159 33.95 79.9633 33.7582ZM69.4199 5.20621V19.5096C67.4742 17.9203 65.3445 16.4681 63.057 15.235V5.20621H69.4199ZM58.9816 5.20621V13.2621C56.957 12.4127 54.8273 11.7003 52.6187 11.0974V5.20621H58.9816ZM48.517 5.20621V10.2206C46.3873 9.8644 44.2576 9.61779 42.1541 9.53558V5.20621H48.517ZM38.0524 5.20621V9.53558C35.8964 9.61779 33.7667 9.837 31.6895 10.1932V5.20621H38.0524ZM27.6141 5.20621V11.0426C25.4581 11.5907 23.3284 12.3031 21.2513 13.1799V5.20621H27.6141ZM17.1496 5.20621V15.1254C14.8621 16.3585 12.7323 17.7833 10.7867 19.3452V5.20621H17.1496Z"
                                            fill="black" />
                                            
                                    </svg>