<svg xmlns="http://www.w3.org/2000/svg" width="70" height="52"
                                            viewBox="0 0 70 52" fill="none">
    <path fill-rule="evenodd" clip-rule="evenodd"
                                                d="M70 38.5955V43.3345C70 45.6686 69.0333 47.7905 67.5008 49.3466C65.9683 50.8791 63.8228 51.8457 61.4887 51.8457H8.48771C6.15359 51.8457 4.03166 50.8791 2.47558 49.3466C0.943079 47.8141 0 45.6686 0 43.3345V38.5955C0 37.676 0.754463 36.9215 1.67396 36.9215H5.16335C5.13978 36.7801 5.1162 36.6622 5.1162 36.5207V4.22028C5.1162 3.06501 5.58774 2.00404 6.36578 1.24958C7.12024 0.471539 8.18121 0 9.33648 0H60.6635C61.8188 0 62.8798 0.471539 63.6578 1.24958C64.4358 2.02762 64.9074 3.06501 64.9074 4.24385V36.5207C64.9074 36.6622 64.8838 36.8036 64.8602 36.9215H68.3496C69.2455 36.9215 70 37.676 70 38.5955ZM8.3934 36.9215H23.2469C23.8835 36.9215 24.4493 37.2752 24.7322 37.8174L26.5712 40.6467H43.4052L45.3385 37.676C45.6686 37.1809 46.1873 36.9215 46.7295 36.9215H61.583C61.5595 36.7801 61.5359 36.6622 61.5359 36.5207V4.24385C61.5359 4.00808 61.4416 3.79589 61.2765 3.63085C61.1115 3.46581 60.8993 3.37151 60.6635 3.37151H9.33648C9.10071 3.37151 8.86494 3.46581 8.72348 3.63085C8.55844 3.79589 8.46413 4.00808 8.46413 4.24385V36.5207C8.46413 36.6386 8.44055 36.7801 8.3934 36.9215ZM13.486 32.2061H56.514V8.3934H13.486V32.2061ZM58.1879 35.5541C59.1074 35.5541 59.8619 34.7996 59.8619 33.8801V6.69586C59.8619 5.77636 59.1074 5.02189 58.1879 5.02189H11.8121C10.8926 5.02189 10.1381 5.77636 10.1381 6.69586V33.8801C10.1381 34.7996 10.8926 35.5541 11.8121 35.5541H58.1879ZM66.6521 43.3345V40.2695H47.649L45.81 43.0987C45.5271 43.6174 44.9613 43.9946 44.3247 43.9946H35.0118H25.6989C25.1566 43.9946 24.6143 43.7353 24.3078 43.2401L22.3745 40.2695H3.37151V43.3345C3.37151 44.7491 3.96093 46.0458 4.88043 46.9653C5.82351 47.9084 7.09667 48.4742 8.51128 48.4742H61.5123C62.9269 48.4742 64.2236 47.8848 65.1431 46.9653C66.0626 46.0458 66.6521 44.7491 66.6521 43.3345Z"
                                                fill="black" />
</svg>