<svg xmlns="http://www.w3.org/2000/svg" width="39" height="36"
                                            viewBox="0 0 50 74" fill="none">
    <path
                                                d="M48.6138 43.4202C49.4829 42.4919 49.9989 41.2542 49.9718 40.0447C49.9718 38.4694 49.2656 37.0911 48.1793 36.1909V15.0374C48.3422 14.8968 48.5052 14.7561 48.6682 14.6155C49.5372 13.6872 50.0261 12.4495 49.9989 11.1555C49.9989 8.45508 47.8534 6.26097 45.219 6.26097H17.7889V4.93888C18.5765 4.62945 19.1468 3.86995 19.1468 2.94167C19.1468 1.76023 18.2234 0.775691 17.0556 0.775691H6.16499C5.02434 0.747561 4.07379 1.70397 4.07379 2.85728C4.07379 3.78556 4.67127 4.60132 5.48603 4.88262V6.20471H4.72559C2.09121 6.23284 0 8.37069 0 11.1274C0 12.7027 0.651806 14.081 1.71099 14.9812V36.1909C0.651806 37.0911 0 38.4694 0 40.0447C0 41.5637 0.678964 42.9139 1.71099 43.814V65.0238C0.651806 65.9239 0 67.3023 0 68.8775C0 71.6061 2.11837 73.8284 4.72559 73.8284H45.1919C46.4411 73.8284 47.6904 73.2658 48.6138 72.3094C49.5101 71.3811 49.9989 70.1152 49.9718 68.8775C49.9718 67.3023 49.2656 65.9239 48.1793 65.0238V43.8422C48.3151 43.7015 48.478 43.589 48.6138 43.4202ZM45.1919 10.4523C45.5178 10.4523 45.8165 10.7617 45.8165 11.0993C45.8165 11.465 45.5449 11.7462 45.1919 11.7462H4.72559C4.39969 11.7462 4.10094 11.4368 4.10094 11.0993C4.10094 10.7898 4.31821 10.4523 4.72559 10.4523H45.1919ZM13.6064 5.02327V6.20471H9.66845V5.02327H13.6064ZM45.1919 40.6635H4.72559C4.69843 40.6635 4.69843 40.6635 4.67127 40.6635C4.56264 40.6073 4.48116 40.5791 4.37253 40.551C4.20958 40.4385 4.07379 40.2134 4.07379 40.0165C4.07379 39.7352 4.20958 39.5383 4.39969 39.4258C4.45401 39.3977 4.48116 39.3977 4.53548 39.3696C4.5898 39.3696 4.64411 39.3414 4.69843 39.3414H45.1647C45.219 39.3414 45.2462 39.3414 45.3005 39.3414C45.3548 39.3696 45.4091 39.3977 45.4634 39.3977C45.6535 39.5102 45.7893 39.7071 45.7893 39.9884C45.7893 40.1853 45.6807 40.3822 45.5178 40.5229C45.4363 40.551 45.3276 40.6073 45.1919 40.6635ZM5.89341 63.9267V44.9392H44.024V63.9267H5.89341ZM44.024 16.0782V35.122H5.89341V16.0782H44.024ZM4.72559 68.1743H45.1919C45.5449 68.1743 45.8165 68.4556 45.8165 68.8213C45.8165 69.1588 45.5178 69.4683 45.1919 69.4683H4.72559C4.39969 69.4683 4.10094 69.1307 4.10094 68.8213C4.10094 68.4556 4.34537 68.1743 4.72559 68.1743Z"
                                                fill="black" />
</svg>