<svg xmlns="http://www.w3.org/2000/svg" width="39" height="36" viewBox="0 0 60 56" fill="none">
    <path
                                            d="M16.0704 34.2794H49.2923C50.1331 34.2794 50.9018 33.775 51.2381 33.0063L59.8138 13.7169C60.2942 12.636 59.8138 11.3628 58.7328 10.8824C58.4686 10.7623 58.1563 10.6902 57.868 10.6902H12.6113L10.7136 1.68211C10.4974 0.673207 9.60864 -0.0234192 8.57571 0.000602444H2.13792C0.960864 -0.0234192 0 0.937445 0 2.1145C0 3.29156 0.960864 4.25242 2.13792 4.25242H6.82213L12.5153 30.8924C8.88799 32.8141 7.47072 37.3061 9.39244 40.9334C10.3053 42.687 11.9147 44.0082 13.8124 44.5847C13.1879 45.6897 12.8516 46.9148 12.8516 48.1879C12.8516 52.3196 16.2146 55.6827 20.3463 55.6827C24.478 55.6827 27.841 52.3196 27.841 48.1879C27.841 47.0829 27.5768 45.9779 27.0964 44.969H35.0235C34.5431 45.9779 34.2788 47.0589 34.2788 48.1879C34.2788 52.3196 37.6418 55.6827 41.7736 55.6827C45.9053 55.6827 49.2683 52.3196 49.2683 48.1879C49.2683 47.0829 49.0041 45.9779 48.5236 44.969H51.4062C52.5833 44.969 53.5441 44.0082 53.5441 42.8311C53.5441 41.654 52.5833 40.6932 51.4062 40.6932H16.0704C14.2928 40.6932 12.8516 39.2519 12.8516 37.4743C12.8516 35.6967 14.2928 34.2794 16.0704 34.2794ZM23.5892 48.2119C23.5892 49.9895 22.1479 51.4308 20.3703 51.4308C18.5927 51.4308 17.1514 49.9895 17.1514 48.2119C17.1514 46.4343 18.5927 44.9931 20.3703 44.9931C22.1479 44.9931 23.5892 46.4343 23.5892 48.2119ZM45.0165 48.2119C45.0165 49.9895 43.5752 51.4308 41.7976 51.4308C40.02 51.4308 38.5787 49.9895 38.5787 48.2119C38.5787 46.4343 40.02 44.9931 41.7976 44.9931C43.5752 44.9931 45.0165 46.4343 45.0165 48.2119ZM54.5771 14.9901L47.8991 30.0036H16.7431L13.5242 14.9901H54.5771Z"
                                            fill="black" />
</svg>