<svg xmlns="http://www.w3.org/2000/svg" width="39" height="36" viewBox="0 0 60 60"
                                        fill="none">
    <path fill-rule="evenodd" clip-rule="evenodd"
                                            d="M25.0201 25.0201H4.99329V35.0336H24.9933V55.0336H35.0067V35.0336H55.0336V25.0201H35.0336V4.99329H25.0201V25.0201ZM20 4.02685C20 2.60403 20 1.87919 20.2685 1.34228C20.5101 0.885906 20.8859 0.510067 21.3423 0.268456C21.8792 0 22.604 0 24.0268 0H35.9732C37.396 0 38.1208 0 38.6577 0.268456C39.1141 0.510067 39.4899 0.885906 39.7315 1.34228C40 1.87919 40 2.60403 40 4.02685V20H55.9732C57.396 20 58.1208 20 58.6577 20.2685C59.1141 20.5101 59.4899 20.8859 59.7315 21.3423C60 21.8792 60 22.604 60 24.0268V35.9732C60 37.396 60 38.1208 59.7315 38.6577C59.4899 39.1141 59.1141 39.4899 58.6577 39.7315C58.1208 40 57.396 40 55.9732 40H40V55.9732C40 57.396 40 58.1208 39.7315 58.6577C39.4899 59.1141 39.1141 59.4899 38.6577 59.7315C38.1208 60 37.396 60 35.9732 60H24.0268C22.604 60 21.8792 60 21.3423 59.7315C20.8859 59.4899 20.5101 59.1141 20.2685 58.6577C20 58.1208 20 57.396 20 55.9732V40H4.02685C2.60403 40 1.87919 40 1.34228 39.7315C0.885906 39.4899 0.510067 39.1141 0.268456 38.6577C0 38.1208 0 37.396 0 35.9732V24.0268C0 22.604 0 21.8792 0.268456 21.3423C0.510067 20.8859 0.885906 20.5101 1.34228 20.2685C1.87919 20 2.60403 20 4.02685 20H20V4.02685Z"
                                            fill="black" />
</svg>